<?xml version="1.0" encoding="UTF-8"?>
<svg width="74.26" height="77.212" version="1.1" viewBox="0 0 74.26 77.212" xml:space="preserve" xmlns="http://www.w3.org/2000/svg" xmlns:cc="http://creativecommons.org/ns#" xmlns:dc="http://purl.org/dc/elements/1.1/" xmlns:rdf="http://www.w3.org/1999/02/22-rdf-syntax-ns#"><metadata><rdf:RDF><cc:Work rdf:about=""><dc:format>image/svg+xml</dc:format><dc:type rdf:resource="http://purl.org/dc/dcmitype/StillImage"/><dc:title/></cc:Work></rdf:RDF></metadata><defs><clipPath id="clipPath20"><path d="m12.496 202.91h257.95v-172.91h-257.95z"/></clipPath><clipPath id="clipPath80"><path d="m35.173 147.92h98.046v36.294h-98.046z"/></clipPath><clipPath><path d="m35.173 147.92h98.046v36.294h-98.046z"/></clipPath></defs><g transform="matrix(1.3333 0 0 -1.3333 0 287.21)"><g transform="matrix(1.0344 0 0 1.0344 -15.374 15.216)"><g clip-path="url(#clipPath20)"><g transform="translate(198.19 6.7377)"><path d="m0 0c0-5.178-4.198-9.376-9.376-9.376-5.179 0-9.377 4.198-9.377 9.376s4.198 9.376 9.377 9.376c5.178 0 9.376-4.198 9.376-9.376" fill="#e1f2ec"/></g><g transform="translate(232.57 6.7377)"><path d="m0 0c0-3.452-2.799-6.251-6.251-6.251s-6.251 2.799-6.251 6.251 2.799 6.251 6.251 6.251 6.251-2.799 6.251-6.251" fill="#e1f2ec"/></g><g transform="matrix(2.2523 0 0 2.2523 -64.44 -221.66)" clip-path="url(#clipPath80)"><g transform="translate(40.764 181.12)"><path d="m0 0c0-1.491-1.209-2.7-2.7-2.7s-2.7 1.209-2.7 2.7 1.209 2.7 2.7 2.7 2.7-1.209 2.7-2.7" fill="#46b19a"/></g><g transform="translate(47.784 181.12)"><path d="m0 0c0-1.193-0.967-2.16-2.16-2.16s-2.16 0.967-2.16 2.16 0.967 2.16 2.16 2.16 2.16-0.967 2.16-2.16" fill="#46b19a"/></g><g transform="translate(53.723 181.12)"><path d="m0 0c0-0.895-0.725-1.62-1.62-1.62-0.894 0-1.62 0.725-1.62 1.62s0.726 1.62 1.62 1.62c0.895 0 1.62-0.725 1.62-1.62" fill="#46b19a"/></g><g transform="translate(40.764 174.46)"><path d="m0 0c0-1.491-1.209-2.7-2.7-2.7s-2.7 1.209-2.7 2.7 1.209 2.7 2.7 2.7 2.7-1.209 2.7-2.7" fill="#46b19a"/></g><g transform="translate(47.784 174.46)"><path d="m0 0c0-1.193-0.967-2.16-2.16-2.16s-2.16 0.967-2.16 2.16 0.967 2.16 2.16 2.16 2.16-0.967 2.16-2.16" fill="#46b19a"/></g><g transform="translate(53.723 174.46)"><path d="m0 0c0-0.895-0.725-1.62-1.62-1.62-0.894 0-1.62 0.725-1.62 1.62s0.726 1.62 1.62 1.62c0.895 0 1.62-0.725 1.62-1.62" fill="#46b19a"/></g><g transform="translate(58.583 174.46)"><path d="m0 0c0-0.596-0.484-1.08-1.08-1.08s-1.08 0.484-1.08 1.08 0.484 1.08 1.08 1.08 1.08-0.484 1.08-1.08" fill="#46b19a"/></g><g transform="translate(40.764 167.8)"><path d="m0 0c0-1.491-1.209-2.7-2.7-2.7s-2.7 1.209-2.7 2.7 1.209 2.7 2.7 2.7 2.7-1.209 2.7-2.7" fill="#46b19a"/></g><g transform="translate(47.784 167.8)"><path d="m0 0c0-1.193-0.967-2.16-2.16-2.16s-2.16 0.967-2.16 2.16 0.967 2.16 2.16 2.16 2.16-0.967 2.16-2.16" fill="#46b19a"/></g><g transform="translate(53.723 167.8)"><path d="m0 0c0-0.895-0.725-1.62-1.62-1.62-0.894 0-1.62 0.725-1.62 1.62s0.726 1.62 1.62 1.62c0.895 0 1.62-0.725 1.62-1.62" fill="#46b19a"/></g><g transform="translate(58.583 167.8)"><path d="m0 0c0-0.596-0.484-1.08-1.08-1.08s-1.08 0.484-1.08 1.08 0.484 1.08 1.08 1.08 1.08-0.484 1.08-1.08" fill="#46b19a"/></g><g transform="translate(47.244 161.68)"><path d="m0 0c0-0.895-0.725-1.62-1.62-1.62-0.894 0-1.62 0.725-1.62 1.62s0.726 1.62 1.62 1.62c0.895 0 1.62-0.725 1.62-1.62" fill="#46b19a"/></g><g transform="translate(53.183 161.68)"><path d="m0 0c0-0.596-0.484-1.08-1.08-1.08s-1.08 0.484-1.08 1.08 0.484 1.08 1.08 1.08 1.08-0.484 1.08-1.08" fill="#46b19a"/></g></g><g transform="matrix(2.2523 0 0 2.2523 -64.44 -221.66)"/></g></g></g></svg>
