<?xml version="1.0" encoding="UTF-8" standalone="no"?>
<svg
   xmlns:dc="http://purl.org/dc/elements/1.1/"
   xmlns:cc="http://creativecommons.org/ns#"
   xmlns:rdf="http://www.w3.org/1999/02/22-rdf-syntax-ns#"
   xmlns:svg="http://www.w3.org/2000/svg"
   xmlns="http://www.w3.org/2000/svg"
   xmlns:sodipodi="http://sodipodi.sourceforge.net/DTD/sodipodi-0.dtd"
   xmlns:inkscape="http://www.inkscape.org/namespaces/inkscape"
   inkscape:version="1.0 (4035a4fb49, 2020-05-01)"
   sodipodi:docname="logo.svg"
   viewBox="0 0 74.26001 77.21202"
   height="77.212013"
   width="74.26001"
   xml:space="preserve"
   id="svg2"
   version="1.1"><metadata
     id="metadata8"><rdf:RDF><cc:Work
         rdf:about=""><dc:format>image/svg+xml</dc:format><dc:type
           rdf:resource="http://purl.org/dc/dcmitype/StillImage" /><dc:title></dc:title></cc:Work></rdf:RDF></metadata><defs
     id="defs6"><clipPath
       id="clipPath20"
       clipPathUnits="userSpaceOnUse"><path
         id="path18"
         d="M 12.4961,202.913 H 270.449 V 30 H 12.4961 Z" /></clipPath><clipPath
       id="clipPath80"
       clipPathUnits="userSpaceOnUse"><path
         id="path78"
         d="m 35.173,147.916 h 98.046 V 184.21 H 35.173 Z" /></clipPath><clipPath
       id="clipPath180"
       clipPathUnits="userSpaceOnUse"><path
         id="path178"
         d="m 35.173,147.916 h 98.046 V 184.21 H 35.173 Z" /></clipPath><clipPath
       id="clipPath220"
       clipPathUnits="userSpaceOnUse"><path
         id="path218"
         d="M 0,0 H 282.945 V 215.409 H 0 Z" /></clipPath></defs><sodipodi:namedview
     inkscape:current-layer="g166"
     inkscape:window-maximized="0"
     inkscape:window-y="36"
     inkscape:window-x="1920"
     inkscape:cy="216.88477"
     inkscape:cx="304.25167"
     inkscape:zoom="1.5685277"
     showgrid="false"
     id="namedview4"
     inkscape:window-height="1023"
     inkscape:window-width="1916"
     inkscape:pageshadow="2"
     inkscape:pageopacity="0"
     guidetolerance="10"
     gridtolerance="10"
     objecttolerance="10"
     borderopacity="1"
     bordercolor="#666666"
     pagecolor="#ffffff" /><g
     transform="matrix(1.3333333,0,0,-1.3333333,0,287.212)"
     inkscape:label="Logo"
     inkscape:groupmode="layer"
     id="g10"><g
       transform="matrix(1.034386,0,0,1.034386,-15.37411,15.215517)"
       id="g12"><g
         id="g14"><g
           clip-path="url(#clipPath20)"
           id="g16"><g
             transform="translate(198.1855,6.7377)"
             id="g66"><path
               id="path68"
               style="fill:#e1f2ec;fill-opacity:1;fill-rule:nonzero;stroke:none"
               d="m 0,0 c 0,-5.178 -4.198,-9.376 -9.376,-9.376 -5.179,0 -9.377,4.198 -9.377,9.376 0,5.178 4.198,9.376 9.377,9.376 C -4.198,9.376 0,5.178 0,0" /></g><g
             transform="translate(232.5656,6.7377)"
             id="g70"><path
               id="path72"
               style="fill:#e1f2ec;fill-opacity:1;fill-rule:nonzero;stroke:none"
               d="m 0,0 c 0,-3.452 -2.799,-6.251 -6.251,-6.251 -3.452,0 -6.251,2.799 -6.251,6.251 0,3.452 2.799,6.251 6.251,6.251 C -2.799,6.251 0,3.452 0,0" /></g><g
             id="g74"><g
               transform="matrix(2.2523276,0,0,2.2523276,-64.440213,-221.66013)"
               clip-path="url(#clipPath80)"
               id="g76"><g
                 transform="translate(40.764466,181.11602)"
                 id="g82"><path
                   id="path84"
                   style="fill:#46b19a;fill-opacity:1;fill-rule:nonzero;stroke:none"
                   d="m 0,0 c 0,-1.491 -1.209,-2.7 -2.7,-2.7 -1.491,0 -2.7,1.209 -2.7,2.7 0,1.491 1.209,2.7 2.7,2.7 C -1.209,2.7 0,1.491 0,0" /></g><g
                 transform="translate(47.783866,181.11602)"
                 id="g86"><path
                   id="path88"
                   style="fill:#46b19a;fill-opacity:1;fill-rule:nonzero;stroke:none"
                   d="m 0,0 c 0,-1.193 -0.967,-2.16 -2.16,-2.16 -1.193,0 -2.16,0.967 -2.16,2.16 0,1.193 0.967,2.16 2.16,2.16 C -0.967,2.16 0,1.193 0,0" /></g><g
                 transform="translate(53.723366,181.11602)"
                 id="g90"><path
                   id="path92"
                   style="fill:#46b19a;fill-opacity:1;fill-rule:nonzero;stroke:none"
                   d="m 0,0 c 0,-0.895 -0.725,-1.62 -1.62,-1.62 -0.894,0 -1.62,0.725 -1.62,1.62 0,0.895 0.726,1.62 1.62,1.62 C -0.725,1.62 0,0.895 0,0" /></g><g
                 transform="translate(40.764466,174.45662)"
                 id="g94"><path
                   id="path96"
                   style="fill:#46b19a;fill-opacity:1;fill-rule:nonzero;stroke:none"
                   d="m 0,0 c 0,-1.491 -1.209,-2.7 -2.7,-2.7 -1.491,0 -2.7,1.209 -2.7,2.7 0,1.491 1.209,2.7 2.7,2.7 C -1.209,2.7 0,1.491 0,0" /></g><g
                 transform="translate(47.783866,174.45662)"
                 id="g98"><path
                   id="path100"
                   style="fill:#46b19a;fill-opacity:1;fill-rule:nonzero;stroke:none"
                   d="m 0,0 c 0,-1.193 -0.967,-2.16 -2.16,-2.16 -1.193,0 -2.16,0.967 -2.16,2.16 0,1.193 0.967,2.16 2.16,2.16 C -0.967,2.16 0,1.193 0,0" /></g><g
                 transform="translate(53.723366,174.45662)"
                 id="g102"><path
                   id="path104"
                   style="fill:#46b19a;fill-opacity:1;fill-rule:nonzero;stroke:none"
                   d="m 0,0 c 0,-0.895 -0.725,-1.62 -1.62,-1.62 -0.894,0 -1.62,0.725 -1.62,1.62 0,0.895 0.726,1.62 1.62,1.62 C -0.725,1.62 0,0.895 0,0" /></g><g
                 transform="translate(58.582966,174.45662)"
                 id="g106"><path
                   id="path108"
                   style="fill:#46b19a;fill-opacity:1;fill-rule:nonzero;stroke:none"
                   d="m 0,0 c 0,-0.596 -0.484,-1.08 -1.08,-1.08 -0.596,0 -1.08,0.484 -1.08,1.08 0,0.596 0.484,1.08 1.08,1.08 C -0.484,1.08 0,0.596 0,0" /></g><g
                 transform="translate(40.764466,167.79712)"
                 id="g110"><path
                   id="path112"
                   style="fill:#46b19a;fill-opacity:1;fill-rule:nonzero;stroke:none"
                   d="m 0,0 c 0,-1.491 -1.209,-2.7 -2.7,-2.7 -1.491,0 -2.7,1.209 -2.7,2.7 0,1.491 1.209,2.7 2.7,2.7 C -1.209,2.7 0,1.491 0,0" /></g><g
                 transform="translate(47.783866,167.79712)"
                 id="g114"><path
                   id="path116"
                   style="fill:#46b19a;fill-opacity:1;fill-rule:nonzero;stroke:none"
                   d="m 0,0 c 0,-1.193 -0.967,-2.16 -2.16,-2.16 -1.193,0 -2.16,0.967 -2.16,2.16 0,1.193 0.967,2.16 2.16,2.16 C -0.967,2.16 0,1.193 0,0" /></g><g
                 transform="translate(53.723366,167.79712)"
                 id="g118"><path
                   id="path120"
                   style="fill:#46b19a;fill-opacity:1;fill-rule:nonzero;stroke:none"
                   d="m 0,0 c 0,-0.895 -0.725,-1.62 -1.62,-1.62 -0.894,0 -1.62,0.725 -1.62,1.62 0,0.895 0.726,1.62 1.62,1.62 C -0.725,1.62 0,0.895 0,0" /></g><g
                 transform="translate(58.582966,167.79712)"
                 id="g122"><path
                   id="path124"
                   style="fill:#46b19a;fill-opacity:1;fill-rule:nonzero;stroke:none"
                   d="m 0,0 c 0,-0.596 -0.484,-1.08 -1.08,-1.08 -0.596,0 -1.08,0.484 -1.08,1.08 0,0.596 0.484,1.08 1.08,1.08 C -0.484,1.08 0,0.596 0,0" /></g><g
                 transform="translate(47.243866,161.67772)"
                 id="g126"><path
                   id="path128"
                   style="fill:#46b19a;fill-opacity:1;fill-rule:nonzero;stroke:none"
                   d="m 0,0 c 0,-0.895 -0.725,-1.62 -1.62,-1.62 -0.894,0 -1.62,0.725 -1.62,1.62 0,0.895 0.726,1.62 1.62,1.62 C -0.725,1.62 0,0.895 0,0" /></g><g
                 transform="translate(53.183366,161.67772)"
                 id="g130"><path
                   id="path132"
                   style="fill:#46b19a;fill-opacity:1;fill-rule:nonzero;stroke:none"
                   d="m 0,0 c 0,-0.596 -0.484,-1.08 -1.08,-1.08 -0.596,0 -1.08,0.484 -1.08,1.08 0,0.596 0.484,1.08 1.08,1.08 C -0.484,1.08 0,0.596 0,0" /></g><g
                 transform="translate(42.1828,164.5743)"
                 id="g134" /><g
                 transform="translate(45.6281,164.4557)"
                 id="g138" /><g
                 transform="translate(56.7195,162.412)"
                 id="g142" /><g
                 transform="translate(63.7887,159.0798)"
                 id="g146" /><g
                 transform="translate(72.8245,162.6935)"
                 id="g150" /><g
                 transform="translate(63.2787,158.2592)"
                 id="g154" /><g
                 transform="translate(78.7,164.8261)"
                 id="g158" /><g
                 transform="translate(84.2127,164.8558)"
                 id="g162" /><g
                 transform="translate(96.4343,164.7077)"
                 id="g166" /><g
                 transform="translate(99.0518,160.3537)"
                 id="g170" /></g></g><g
             transform="matrix(2.2523276,0,0,2.2523276,-64.440213,-221.66013)"
             id="g174"><g
               clip-path="url(#clipPath180)"
               id="g176" /></g></g></g></g></g></svg>
