<?xml version="1.0" encoding="UTF-8" standalone="no"?>
<svg
   xmlns:dc="http://purl.org/dc/elements/1.1/"
   xmlns:cc="http://creativecommons.org/ns#"
   xmlns:rdf="http://www.w3.org/1999/02/22-rdf-syntax-ns#"
   xmlns:svg="http://www.w3.org/2000/svg"
   xmlns="http://www.w3.org/2000/svg"
   xmlns:sodipodi="http://sodipodi.sourceforge.net/DTD/sodipodi-0.dtd"
   xmlns:inkscape="http://www.inkscape.org/namespaces/inkscape"
   version="1.1"
   id="svg2"
   xml:space="preserve"
   width="74.26001"
   height="77.212013"
   viewBox="0 0 74.26001 77.21202"
   sodipodi:docname="logo_black.svg"
   inkscape:version="1.0 (4035a4fb49, 2020-05-01)"><style
     id="style885"></style><metadata
     id="metadata8"><rdf:RDF><cc:Work
         rdf:about=""><dc:format>image/svg+xml</dc:format><dc:type
           rdf:resource="http://purl.org/dc/dcmitype/StillImage" /><dc:title></dc:title></cc:Work></rdf:RDF></metadata><defs
     id="defs6"><clipPath
       clipPathUnits="userSpaceOnUse"
       id="clipPath20"><path
         d="M 12.4961,202.913 H 270.449 V 30 H 12.4961 Z"
         id="path18" /></clipPath><clipPath
       clipPathUnits="userSpaceOnUse"
       id="clipPath80"><path
         d="m 35.173,147.916 h 98.046 V 184.21 H 35.173 Z"
         id="path78" /></clipPath><clipPath
       clipPathUnits="userSpaceOnUse"
       id="clipPath180"><path
         d="m 35.173,147.916 h 98.046 V 184.21 H 35.173 Z"
         id="path178" /></clipPath><clipPath
       clipPathUnits="userSpaceOnUse"
       id="clipPath220"><path
         d="M 0,0 H 282.945 V 215.409 H 0 Z"
         id="path218" /></clipPath></defs><sodipodi:namedview
     inkscape:document-rotation="0"
     pagecolor="#ffffff"
     bordercolor="#666666"
     borderopacity="1"
     objecttolerance="10"
     gridtolerance="10"
     guidetolerance="10"
     inkscape:pageopacity="0"
     inkscape:pageshadow="2"
     inkscape:window-width="1916"
     inkscape:window-height="1023"
     id="namedview4"
     showgrid="false"
     inkscape:zoom="1.5685277"
     inkscape:cx="148.69178"
     inkscape:cy="216.88477"
     inkscape:window-x="1920"
     inkscape:window-y="36"
     inkscape:window-maximized="0"
     inkscape:current-layer="g166" /><g
     id="g10"
     inkscape:groupmode="layer"
     inkscape:label="Logo"
     transform="matrix(1.3333333,0,0,-1.3333333,0,287.212)"><g
       id="g12"
       transform="matrix(1.034386,0,0,1.034386,-15.37411,15.215517)"><g
         id="g14"><g
           id="g16"
           clip-path="url(#clipPath20)"><g
             id="g66"
             transform="translate(198.1855,6.7377)"><path
               d="m 0,0 c 0,-5.178 -4.198,-9.376 -9.376,-9.376 -5.179,0 -9.377,4.198 -9.377,9.376 0,5.178 4.198,9.376 9.377,9.376 C -4.198,9.376 0,5.178 0,0"
               style="fill:#e1f2ec;fill-opacity:1;fill-rule:nonzero;stroke:none"
               id="path68" /></g><g
             id="g70"
             transform="translate(232.5656,6.7377)"><path
               d="m 0,0 c 0,-3.452 -2.799,-6.251 -6.251,-6.251 -3.452,0 -6.251,2.799 -6.251,6.251 0,3.452 2.799,6.251 6.251,6.251 C -2.799,6.251 0,3.452 0,0"
               style="fill:#e1f2ec;fill-opacity:1;fill-rule:nonzero;stroke:none"
               id="path72" /></g><g
             id="g74"><g
               id="g76"
               clip-path="url(#clipPath80)"
               transform="matrix(2.2523276,0,0,2.2523276,-64.440213,-221.66013)"><g
                 style="fill:#000000"
                 id="g82"
                 transform="translate(40.764466,181.11602)"><path
                   d="m 0,0 c 0,-1.491 -1.209,-2.7 -2.7,-2.7 -1.491,0 -2.7,1.209 -2.7,2.7 0,1.491 1.209,2.7 2.7,2.7 C -1.209,2.7 0,1.491 0,0"
                   style="fill:#000000;fill-opacity:1;fill-rule:nonzero;stroke:none"
                   id="path84" /></g><g
                 style="fill:#000000"
                 id="g86"
                 transform="translate(47.783866,181.11602)"><path
                   d="m 0,0 c 0,-1.193 -0.967,-2.16 -2.16,-2.16 -1.193,0 -2.16,0.967 -2.16,2.16 0,1.193 0.967,2.16 2.16,2.16 C -0.967,2.16 0,1.193 0,0"
                   style="fill:#000000;fill-opacity:1;fill-rule:nonzero;stroke:none"
                   id="path88" /></g><g
                 style="fill:#000000"
                 id="g90"
                 transform="translate(53.723366,181.11602)"><path
                   d="m 0,0 c 0,-0.895 -0.725,-1.62 -1.62,-1.62 -0.894,0 -1.62,0.725 -1.62,1.62 0,0.895 0.726,1.62 1.62,1.62 C -0.725,1.62 0,0.895 0,0"
                   style="fill:#000000;fill-opacity:1;fill-rule:nonzero;stroke:none"
                   id="path92" /></g><g
                 style="fill:#000000"
                 id="g94"
                 transform="translate(40.764466,174.45662)"><path
                   d="m 0,0 c 0,-1.491 -1.209,-2.7 -2.7,-2.7 -1.491,0 -2.7,1.209 -2.7,2.7 0,1.491 1.209,2.7 2.7,2.7 C -1.209,2.7 0,1.491 0,0"
                   style="fill:#000000;fill-opacity:1;fill-rule:nonzero;stroke:none"
                   id="path96" /></g><g
                 style="fill:#000000"
                 id="g98"
                 transform="translate(47.783866,174.45662)"><path
                   d="m 0,0 c 0,-1.193 -0.967,-2.16 -2.16,-2.16 -1.193,0 -2.16,0.967 -2.16,2.16 0,1.193 0.967,2.16 2.16,2.16 C -0.967,2.16 0,1.193 0,0"
                   style="fill:#000000;fill-opacity:1;fill-rule:nonzero;stroke:none"
                   id="path100" /></g><g
                 style="fill:#000000"
                 id="g102"
                 transform="translate(53.723366,174.45662)"><path
                   d="m 0,0 c 0,-0.895 -0.725,-1.62 -1.62,-1.62 -0.894,0 -1.62,0.725 -1.62,1.62 0,0.895 0.726,1.62 1.62,1.62 C -0.725,1.62 0,0.895 0,0"
                   style="fill:#000000;fill-opacity:1;fill-rule:nonzero;stroke:none"
                   id="path104" /></g><g
                 style="fill:#000000"
                 id="g106"
                 transform="translate(58.582966,174.45662)"><path
                   d="m 0,0 c 0,-0.596 -0.484,-1.08 -1.08,-1.08 -0.596,0 -1.08,0.484 -1.08,1.08 0,0.596 0.484,1.08 1.08,1.08 C -0.484,1.08 0,0.596 0,0"
                   style="fill:#000000;fill-opacity:1;fill-rule:nonzero;stroke:none"
                   id="path108" /></g><g
                 style="fill:#000000"
                 id="g110"
                 transform="translate(40.764466,167.79712)"><path
                   d="m 0,0 c 0,-1.491 -1.209,-2.7 -2.7,-2.7 -1.491,0 -2.7,1.209 -2.7,2.7 0,1.491 1.209,2.7 2.7,2.7 C -1.209,2.7 0,1.491 0,0"
                   style="fill:#000000;fill-opacity:1;fill-rule:nonzero;stroke:none"
                   id="path112" /></g><g
                 style="fill:#000000"
                 id="g114"
                 transform="translate(47.783866,167.79712)"><path
                   d="m 0,0 c 0,-1.193 -0.967,-2.16 -2.16,-2.16 -1.193,0 -2.16,0.967 -2.16,2.16 0,1.193 0.967,2.16 2.16,2.16 C -0.967,2.16 0,1.193 0,0"
                   style="fill:#000000;fill-opacity:1;fill-rule:nonzero;stroke:none"
                   id="path116" /></g><g
                 style="fill:#000000"
                 id="g118"
                 transform="translate(53.723366,167.79712)"><path
                   d="m 0,0 c 0,-0.895 -0.725,-1.62 -1.62,-1.62 -0.894,0 -1.62,0.725 -1.62,1.62 0,0.895 0.726,1.62 1.62,1.62 C -0.725,1.62 0,0.895 0,0"
                   style="fill:#000000;fill-opacity:1;fill-rule:nonzero;stroke:none"
                   id="path120" /></g><g
                 style="fill:#000000"
                 id="g122"
                 transform="translate(58.582966,167.79712)"><path
                   d="m 0,0 c 0,-0.596 -0.484,-1.08 -1.08,-1.08 -0.596,0 -1.08,0.484 -1.08,1.08 0,0.596 0.484,1.08 1.08,1.08 C -0.484,1.08 0,0.596 0,0"
                   style="fill:#000000;fill-opacity:1;fill-rule:nonzero;stroke:none"
                   id="path124" /></g><g
                 style="fill:#000000"
                 id="g126"
                 transform="translate(47.243866,161.67772)"><path
                   d="m 0,0 c 0,-0.895 -0.725,-1.62 -1.62,-1.62 -0.894,0 -1.62,0.725 -1.62,1.62 0,0.895 0.726,1.62 1.62,1.62 C -0.725,1.62 0,0.895 0,0"
                   style="fill:#000000;fill-opacity:1;fill-rule:nonzero;stroke:none"
                   id="path128" /></g><g
                 style="fill:#000000"
                 id="g130"
                 transform="translate(53.183366,161.67772)"><path
                   d="m 0,0 c 0,-0.596 -0.484,-1.08 -1.08,-1.08 -0.596,0 -1.08,0.484 -1.08,1.08 0,0.596 0.484,1.08 1.08,1.08 C -0.484,1.08 0,0.596 0,0"
                   style="fill:#000000;fill-opacity:1;fill-rule:nonzero;stroke:none"
                   id="path132" /></g><g
                 id="g134"
                 transform="translate(42.1828,164.5743)" /><g
                 id="g138"
                 transform="translate(45.6281,164.4557)" /><g
                 id="g142"
                 transform="translate(56.7195,162.412)" /><g
                 id="g146"
                 transform="translate(63.7887,159.0798)" /><g
                 id="g150"
                 transform="translate(72.8245,162.6935)" /><g
                 id="g154"
                 transform="translate(63.2787,158.2592)" /><g
                 id="g158"
                 transform="translate(78.7,164.8261)" /><g
                 id="g162"
                 transform="translate(84.2127,164.8558)" /><g
                 id="g166"
                 transform="translate(96.4343,164.7077)" /><g
                 id="g170"
                 transform="translate(99.0518,160.3537)" /></g></g><g
             id="g174"
             transform="matrix(2.2523276,0,0,2.2523276,-64.440213,-221.66013)"><g
               id="g176"
               clip-path="url(#clipPath180)" /></g></g></g></g></g></svg>
