<?xml version="1.0" encoding="UTF-8" standalone="no"?>
<svg
   xmlns:dc="http://purl.org/dc/elements/1.1/"
   xmlns:cc="http://creativecommons.org/ns#"
   xmlns:rdf="http://www.w3.org/1999/02/22-rdf-syntax-ns#"
   xmlns:svg="http://www.w3.org/2000/svg"
   xmlns="http://www.w3.org/2000/svg"
   xmlns:sodipodi="http://sodipodi.sourceforge.net/DTD/sodipodi-0.dtd"
   xmlns:inkscape="http://www.inkscape.org/namespaces/inkscape"
   inkscape:version="1.0 (4035a4fb49, 2020-05-01)"
   sodipodi:docname="chemistry.svg"
   xml:space="preserve"
   style="enable-background:new 0 0 512 512;"
   viewBox="0 0 512 512"
   y="0px"
   x="0px"
   id="Capa_1"
   version="1.1"><metadata
   id="metadata49"><rdf:RDF><cc:Work
       rdf:about=""><dc:format>image/svg+xml</dc:format><dc:type
         rdf:resource="http://purl.org/dc/dcmitype/StillImage" /><dc:title></dc:title></cc:Work></rdf:RDF></metadata><defs
   id="defs47" /><sodipodi:namedview
   inkscape:current-layer="Capa_1"
   inkscape:window-maximized="0"
   inkscape:window-y="36"
   inkscape:window-x="0"
   inkscape:cy="308.95154"
   inkscape:cx="234.80013"
   inkscape:zoom="1.2443422"
   showgrid="false"
   id="namedview45"
   inkscape:window-height="1023"
   inkscape:window-width="1916"
   inkscape:pageshadow="2"
   inkscape:pageopacity="0"
   guidetolerance="10"
   gridtolerance="10"
   objecttolerance="10"
   borderopacity="1"
   bordercolor="#666666"
   pagecolor="#ffffff" />
<path
   style="stroke-width:0.844208"
   sodipodi:nodetypes="cccsssscccssccsccssssssccsccccssccccs"
   id="path2"
   d="m 452.39948,408.10971 c -3.68329,-5.7879 -122.11649,-191.89624 -125.766,-197.63096 V 80.076269 c 20.94736,0 31.98627,-17.042047 31.98627,-37.989402 0,-20.947342 -11.03807,-37.9893891 -31.98627,-37.9893891 H 200.00217 c -20.94735,0 -30.1105,17.0420471 -30.1105,37.9893891 0,20.947355 9.16315,37.989402 30.1105,37.989402 V 210.47875 L 74.23702,408.10971 c -26.854282,42.20115 3.40469,97.30856 53.4173,97.30856 h 271.32785 c 50.02021,0 80.26736,-55.11501 53.41731,-97.30856 z M 223.3496,220.96468 c 1.29248,-2.03202 1.97967,-4.38989 1.97967,-6.79842 V 80.076269 c 0,-25.326272 -0.5218,18.505856 0,-25.326272 h -25.32626 c -6.98245,0 -5.80076,-5.680674 -5.80076,-12.66313 0,-6.982443 -1.18169,-12.66313 5.80076,-12.66313 h 126.63131 c 6.98246,0 6.38756,5.680687 6.38756,12.66313 0,6.982456 0.5949,12.66313 -6.38756,12.66313 h -25.32626 c 0.36807,19.970023 0,0 0,25.326272 V 214.16626 c 0,2.40853 0.68634,4.7664 1.97966,6.79842 0,0 29.95764,38.89214 44.03167,62.91861 -148.1013,1.97407 -25.79162,0.62227 -165.77411,2.55901 z M 398.98217,480.09201 H 127.65432 c -30.01162,0 -48.16126,-33.0685 -32.05038,-58.38463 l 75.56342,-116.69036 c 147.42632,-0.4514 27.04822,-0.24009 187.58544,-0.52144 l 72.27807,117.2118 c 16.11509,25.31951 -2.0413,58.38463 -32.0487,58.38463 z" />
<path
   style="stroke-width:0.844208"
   id="path4"
   d="m 187.33904,378.78696 c -20.94735,0 -37.98939,17.04205 -37.98939,37.9894 0,20.94734 17.04204,37.98939 37.98939,37.98939 20.94734,0 37.98939,-17.04205 37.98939,-37.98939 0,-20.94735 -17.04119,-37.9894 -37.98939,-37.9894 z m 0,50.65253 c -6.98245,0 -12.66314,-5.68068 -12.66314,-12.66313 0,-6.98245 5.68069,-12.66314 12.66314,-12.66314 6.98245,0 12.66313,5.68069 12.66313,12.66314 0,6.98245 -5.67984,12.66313 -12.66313,12.66313 z" />
<path
   style="stroke-width:0.558779"
   sodipodi:nodetypes="ssssssssss"
   id="path6"
   d="m 337.0062,363.71934 c -13.86497,0 -25.14503,11.28006 -25.14503,25.14502 0,13.86497 11.28006,25.14502 25.14503,25.14502 13.86496,0 25.14501,-11.28005 25.14501,-25.14502 0,-13.86496 -11.27949,-25.14502 -25.14501,-25.14502 z m 0,33.04029 c -4.62165,0 -8.38168,-3.76001 -8.38168,-8.38168 0,-4.62165 3.76003,-8.38166 8.38168,-8.38166 4.62165,0 8.38166,3.76001 8.38166,8.38166 0,4.62167 -3.75945,8.38168 -8.38166,8.38168 z" />
<circle
   style="stroke-width:0.844208"
   id="circle8"
   r="12.663132"
   cy="416.77631"
   cx="263.31781" />
<circle
   style="stroke-width:0.844208"
   id="circle10"
   r="12.663132"
   cy="440.90091"
   cx="356.11411" />

<g
   id="g14">
</g>
<g
   id="g16">
</g>
<g
   id="g18">
</g>
<g
   id="g20">
</g>
<g
   id="g22">
</g>
<g
   id="g24">
</g>
<g
   id="g26">
</g>
<g
   id="g28">
</g>
<g
   id="g30">
</g>
<g
   id="g32">
</g>
<g
   id="g34">
</g>
<g
   id="g36">
</g>
<g
   id="g38">
</g>
<g
   id="g40">
</g>
<g
   id="g42">
</g>
</svg>
